<?xml version="1.0" standalone="no"?>
<!DOCTYPE svg PUBLIC "-//W3C//DTD SVG 20010904//EN"
 "http://www.w3.org/TR/2001/REC-SVG-20010904/DTD/svg10.dtd">
<svg version="1.0" xmlns="http://www.w3.org/2000/svg"
 width="512.000000pt" height="512.000000pt" viewBox="0 0 512.000000 512.000000"
 preserveAspectRatio="xMidYMid meet">
<metadata>
Created by potrace 1.14, written by Peter Selinger 2001-2017
</metadata>
<g transform="translate(0.000000,512.000000) scale(0.100000,-0.100000)"
fill="#000000" stroke="none">
<path d="M1495 5003 c-116 -42 -174 -91 -219 -187 -42 -88 -40 -160 5 -226 19
-28 38 -50 43 -50 5 0 43 -35 86 -78 66 -67 77 -83 73 -105 -4 -23 8 -39 97
-124 118 -113 133 -125 170 -129 18 -2 65 -40 150 -122 121 -116 124 -120 126
-166 1 -26 -2 -44 -7 -41 -5 4 -9 12 -9 19 0 14 -56 69 -87 85 -13 6 -39 12
-58 13 -40 1 -64 -17 -99 -76 -129 -217 -130 -220 -129 -267 0 -25 8 -69 18
-98 9 -29 14 -55 11 -58 -3 -4 -30 -10 -59 -14 -42 -5 -72 -19 -138 -64 -143
-98 -200 -171 -229 -295 -17 -72 -16 -128 5 -242 18 -98 45 -175 77 -220 10
-15 46 -80 80 -145 61 -117 62 -119 64 -209 1 -50 10 -118 18 -152 9 -33 18
-110 21 -169 5 -118 14 -217 23 -248 3 -11 6 -123 7 -250 0 -136 6 -255 13
-292 47 -234 187 -491 389 -713 23 -25 52 -57 65 -71 39 -44 289 -184 388
-217 76 -25 199 -22 261 7 41 20 159 128 208 192 21 27 148 279 169 334 31 82
41 194 29 308 -9 84 -16 171 -22 267 l-4 75 72 -80 c148 -163 223 -233 303
-281 58 -34 153 -36 209 -3 51 30 79 58 100 100 9 19 41 59 71 89 80 83 103
157 109 359 2 63 6 131 9 150 5 27 -1 49 -22 91 -16 30 -59 113 -96 184 -102
199 -108 224 -120 548 -1 43 -7 63 -23 80 -12 13 -43 70 -68 128 -88 199 -102
217 -129 179 -13 -19 -15 -19 -43 19 -15 22 -55 62 -88 88 -93 76 -121 105
-145 154 -32 66 -137 219 -181 265 -30 32 -65 98 -69 130 0 3 10 26 23 53 46
91 70 182 82 313 l7 66 -130 31 c-171 42 -168 42 -177 -14 -8 -53 -8 -56 -25
-146 -11 -62 -15 -68 -36 -68 -30 0 -35 11 -84 207 -41 166 -44 170 -224 482
-58 101 -106 184 -106 185 0 2 -20 38 -45 82 -71 125 -164 223 -260 273 -104
54 -167 70 -295 77 -85 4 -114 1 -155 -13z m280 -196 c17 -6 60 -29 97 -51 62
-37 111 -91 141 -156 4 -8 17 -31 28 -50 12 -19 37 -64 57 -100 19 -36 43 -77
53 -92 11 -14 19 -28 19 -31 0 -2 25 -49 56 -103 31 -55 68 -119 82 -144 13
-25 29 -51 34 -57 6 -7 8 -20 4 -28 -7 -20 -76 -20 -102 0 -10 8 -28 15 -39
15 -32 0 -93 37 -137 83 -22 23 -66 69 -98 102 -41 42 -60 70 -64 94 -4 27
-27 55 -118 142 -83 80 -120 108 -139 109 -36 0 -160 131 -161 169 -1 44 29
80 81 95 54 16 163 18 206 3z m662 -1259 c-7 -3 -34 -9 -61 -13 -40 -6 -48 -5
-44 6 6 17 29 89 35 108 2 9 19 -6 43 -40 26 -36 35 -56 27 -61z"/>
</g>
</svg>
